<svg width="504" height="504" viewBox="0 0 504 504" fill="none" xmlns="http://www.w3.org/2000/svg">
<g clip-path="url(#clip0_478_74)">
<g filter="url(#filter0_b_478_74)">
<rect width="504" height="504" rx="115.043" fill="#141414" fill-opacity="0.4"/>
</g>
<g opacity="0.7">
<rect y="194.88" width="123.48" height="100.8" fill="#303136"/>
<rect y="194.88" width="123.48" height="100.8" fill="url(#paint0_linear_478_74)"/>
</g>
<g opacity="0.7">
<rect y="299.04" width="123.48" height="100.8" fill="#616161"/>
<rect y="299.04" width="123.48" height="100.8" fill="url(#paint1_linear_478_74)" fill-opacity="0.2"/>
</g>
<g opacity="0.7">
<rect y="403.2" width="250.32" height="100.8" fill="#616161"/>
<rect y="403.2" width="250.32" height="100.8" fill="url(#paint2_linear_478_74)" fill-opacity="0.2"/>
</g>
<g opacity="0.7">
<rect x="126.84" y="194.88" width="123.48" height="100.8" fill="#303136"/>
<rect x="126.84" y="194.88" width="123.48" height="100.8" fill="url(#paint3_linear_478_74)"/>
</g>
<g opacity="0.7">
<rect x="126.84" y="299.04" width="123.48" height="100.8" fill="#616161"/>
<rect x="126.84" y="299.04" width="123.48" height="100.8" fill="url(#paint4_linear_478_74)" fill-opacity="0.2"/>
</g>
<g opacity="0.7">
<rect x="253.68" y="194.88" width="123.48" height="100.8" fill="#303136"/>
<rect x="253.68" y="194.88" width="123.48" height="100.8" fill="url(#paint5_linear_478_74)"/>
</g>
<g opacity="0.7">
<rect x="253.68" y="299.04" width="123.48" height="100.8" fill="#616161"/>
<rect x="253.68" y="299.04" width="123.48" height="100.8" fill="url(#paint6_linear_478_74)" fill-opacity="0.2"/>
</g>
<g opacity="0.7">
<rect x="253.68" y="403.2" width="123.48" height="100.8" fill="#616161"/>
<rect x="253.68" y="403.2" width="123.48" height="100.8" fill="url(#paint7_linear_478_74)" fill-opacity="0.2"/>
</g>
<rect x="380.52" y="194.88" width="123.48" height="100.8" fill="url(#paint8_linear_478_74)"/>
<rect x="380.52" y="299.04" width="123.48" height="100.8" fill="url(#paint9_linear_478_74)"/>
<rect x="380.52" y="403.2" width="123.48" height="100.8" fill="url(#paint10_linear_478_74)"/>
<path d="M441.315 167.76C458.324 167.76 468.348 152.937 468.348 127.769C468.348 102.656 458.217 87.6192 441.315 87.6192C424.306 87.6192 414.121 102.602 414.121 127.663C414.121 152.883 424.199 167.76 441.315 167.76ZM441.315 161.361C428.785 161.361 421.48 148.991 421.48 127.663C421.48 106.548 428.838 94.071 441.315 94.071C453.738 94.071 461.043 106.441 461.043 127.663C461.043 148.991 453.792 161.361 441.315 161.361Z" fill="#E9E9EC"/>
</g>
<rect x="1.68" y="1.68" width="500.64" height="500.64" rx="115.92" stroke="white" stroke-opacity="0.11" stroke-width="3.36"/>
<defs>
<filter id="filter0_b_478_74" x="-84" y="-84" width="672" height="672" filterUnits="userSpaceOnUse" color-interpolation-filters="sRGB">
<feFlood flood-opacity="0" result="BackgroundImageFix"/>
<feGaussianBlur in="BackgroundImageFix" stdDeviation="42"/>
<feComposite in2="SourceAlpha" operator="in" result="effect1_backgroundBlur_478_74"/>
<feBlend mode="normal" in="SourceGraphic" in2="effect1_backgroundBlur_478_74" result="shape"/>
</filter>
<linearGradient id="paint0_linear_478_74" x1="4.2875" y1="198.24" x2="102.564" y2="297.706" gradientUnits="userSpaceOnUse">
<stop stop-color="#303136"/>
<stop offset="1" stop-color="#616161"/>
</linearGradient>
<linearGradient id="paint1_linear_478_74" x1="0" y1="299.04" x2="105.42" y2="399.84" gradientUnits="userSpaceOnUse">
<stop stop-color="white"/>
<stop offset="1" stop-color="white" stop-opacity="0"/>
</linearGradient>
<linearGradient id="paint2_linear_478_74" x1="0" y1="403.2" x2="85.9938" y2="569.888" gradientUnits="userSpaceOnUse">
<stop stop-color="white"/>
<stop offset="1" stop-color="white" stop-opacity="0"/>
</linearGradient>
<linearGradient id="paint3_linear_478_74" x1="131.128" y1="198.24" x2="229.404" y2="297.706" gradientUnits="userSpaceOnUse">
<stop stop-color="#303136"/>
<stop offset="1" stop-color="#616161"/>
</linearGradient>
<linearGradient id="paint4_linear_478_74" x1="126.84" y1="299.04" x2="232.26" y2="399.84" gradientUnits="userSpaceOnUse">
<stop stop-color="white"/>
<stop offset="1" stop-color="white" stop-opacity="0"/>
</linearGradient>
<linearGradient id="paint5_linear_478_74" x1="257.967" y1="198.24" x2="356.244" y2="297.706" gradientUnits="userSpaceOnUse">
<stop stop-color="#303136"/>
<stop offset="1" stop-color="#616161"/>
</linearGradient>
<linearGradient id="paint6_linear_478_74" x1="253.68" y1="299.04" x2="359.1" y2="399.84" gradientUnits="userSpaceOnUse">
<stop stop-color="white"/>
<stop offset="1" stop-color="white" stop-opacity="0"/>
</linearGradient>
<linearGradient id="paint7_linear_478_74" x1="253.68" y1="403.2" x2="359.1" y2="504" gradientUnits="userSpaceOnUse">
<stop stop-color="white"/>
<stop offset="1" stop-color="white" stop-opacity="0"/>
</linearGradient>
<linearGradient id="paint8_linear_478_74" x1="393.463" y1="199.732" x2="427.658" y2="300.629" gradientUnits="userSpaceOnUse">
<stop stop-color="#005DB2"/>
<stop offset="1" stop-color="#1991FF"/>
</linearGradient>
<linearGradient id="paint9_linear_478_74" x1="393.463" y1="303.892" x2="427.658" y2="404.789" gradientUnits="userSpaceOnUse">
<stop stop-color="#005DB2"/>
<stop offset="1" stop-color="#1991FF"/>
</linearGradient>
<linearGradient id="paint10_linear_478_74" x1="393.463" y1="408.052" x2="427.658" y2="508.949" gradientUnits="userSpaceOnUse">
<stop stop-color="#005DB2"/>
<stop offset="1" stop-color="#1991FF"/>
</linearGradient>
<clipPath id="clip0_478_74">
<rect width="504" height="504" rx="117.6" fill="white"/>
</clipPath>
</defs>
</svg>
